<?xml version="1.0" encoding="UTF-8"?>
<!DOCTYPE svg PUBLIC "-//W3C//DTD SVG 1.1//EN" "http://www.w3.org/Graphics/SVG/1.1/DTD/svg11.dtd">
<svg xmlns="http://www.w3.org/2000/svg" version="1.1" width="450px" height="450px" style="shape-rendering:geometricPrecision; text-rendering:geometricPrecision; image-rendering:optimizeQuality; fill-rule:evenodd; clip-rule:evenodd" xmlns:xlink="http://www.w3.org/1999/xlink">
<g><path style="opacity:0.65" fill="#d6ecdc" d="M 411.5,117.5 C 319.855,116.343 228.188,116.177 136.5,117C 134.061,117.774 132.227,119.274 131,121.5C 130.83,125.493 130.996,129.493 131.5,133.5C 124.239,133.287 117.239,132.287 110.5,130.5C 109.797,128.127 108.464,126.127 106.5,124.5C 107.338,124.158 107.672,123.492 107.5,122.5C 109.985,124.498 111.985,126.998 113.5,130C 118.489,130.499 123.489,130.666 128.5,130.5C 128.334,126.486 128.501,122.486 129,118.5C 129.5,117.333 130.333,116.5 131.5,116C 224.167,115.333 316.833,115.333 409.5,116C 410.416,116.278 411.082,116.778 411.5,117.5 Z"/></g>
<g><path style="opacity:1" fill="#fcfdfc" d="M 411.5,117.5 C 413.727,118.401 414.727,120.067 414.5,122.5C 415.146,135.212 414.48,147.545 412.5,159.5C 374.833,159.5 337.167,159.5 299.5,159.5C 266.173,138.167 232.839,138.167 199.5,159.5C 144.5,159.5 89.5,159.5 34.5,159.5C 34.5,151.833 34.5,144.167 34.5,136.5C 35.2543,133.909 36.921,132.076 39.5,131C 46.1583,130.5 52.825,130.334 59.5,130.5C 76.2531,130.537 93.2531,130.537 110.5,130.5C 117.239,132.287 124.239,133.287 131.5,133.5C 130.996,129.493 130.83,125.493 131,121.5C 132.227,119.274 134.061,117.774 136.5,117C 228.188,116.177 319.855,116.343 411.5,117.5 Z"/></g>
<g><path style="opacity:1" fill="#46514a" d="M 107.5,122.5 C 107.672,123.492 107.338,124.158 106.5,124.5C 92.4591,125.149 78.7924,124.482 65.5,122.5C 66.2891,122.217 66.9558,121.717 67.5,121C 80.1667,120.333 92.8333,120.333 105.5,121C 106.416,121.278 107.082,121.778 107.5,122.5 Z"/></g>
<g><path style="opacity:1" fill="#a9a9ab" d="M 334.5,138.5 C 333.833,142.833 333.167,147.167 332.5,151.5C 332.5,151.167 332.5,150.833 332.5,150.5C 332.5,142.167 332.5,133.833 332.5,125.5C 321.833,125.5 311.167,125.5 300.5,125.5C 299.515,129.634 299.182,133.968 299.5,138.5C 298.514,134.03 298.181,129.363 298.5,124.5C 309.993,123.341 321.659,123.174 333.5,124C 334.469,128.737 334.803,133.57 334.5,138.5 Z"/></g>
<g><path style="opacity:1" fill="#818183" d="M 349.5,124.5 C 364.17,124.333 378.837,124.5 393.5,125C 394.467,129.401 394.8,133.901 394.5,138.5C 393.833,142.5 393.167,146.5 392.5,150.5C 392.5,142.5 392.5,134.5 392.5,126.5C 378.833,126.5 365.167,126.5 351.5,126.5C 351.5,134.5 351.5,142.5 351.5,150.5C 350.833,146.5 350.167,142.5 349.5,138.5C 349.5,133.833 349.5,129.167 349.5,124.5 Z"/></g>
<g><path style="opacity:1" fill="#e4e7e7" d="M 65.5,122.5 C 78.7924,124.482 92.4591,125.149 106.5,124.5C 108.464,126.127 109.797,128.127 110.5,130.5C 93.2531,130.537 76.2531,130.537 59.5,130.5C 60.794,127.219 62.794,124.552 65.5,122.5 Z"/></g>
<g><path style="opacity:1" fill="#464547" d="M 349.5,124.5 C 364.328,123.339 379.328,123.172 394.5,124C 395.485,133.083 395.818,142.249 395.5,151.5C 395.167,151.5 394.833,151.5 394.5,151.5C 394.5,147.167 394.5,142.833 394.5,138.5C 394.8,133.901 394.467,129.401 393.5,125C 378.837,124.5 364.17,124.333 349.5,124.5 Z"/></g>
<g><path style="opacity:0.341" fill="#bdd7c5" d="M 414.5,122.5 C 415.497,139.325 415.83,156.325 415.5,173.5C 415.167,173.5 414.833,173.5 414.5,173.5C 415.055,169.988 414.388,166.988 412.5,164.5C 412.5,162.833 412.5,161.167 412.5,159.5C 414.48,147.545 415.146,135.212 414.5,122.5 Z"/></g>
<g><path style="opacity:1" fill="#57585a" d="M 300.5,125.5 C 311.167,125.5 321.833,125.5 332.5,125.5C 332.5,133.833 332.5,142.167 332.5,150.5C 331.508,150.672 330.842,150.338 330.5,149.5C 330.831,141.804 330.497,134.138 329.5,126.5C 328.914,126.709 328.414,127.043 328,127.5C 327.178,135.012 327.345,142.345 328.5,149.5C 327.5,150.833 326.5,150.833 325.5,149.5C 326.655,142.345 326.822,135.012 326,127.5C 325.586,127.043 325.086,126.709 324.5,126.5C 323.509,130.445 323.176,134.445 323.5,138.5C 323.5,142.167 323.5,145.833 323.5,149.5C 322.833,150.833 322.167,150.833 321.5,149.5C 320.833,118.833 320.167,118.833 319.5,149.5C 318.833,150.833 318.167,150.833 317.5,149.5C 317.5,145.833 317.5,142.167 317.5,138.5C 317.824,134.445 317.491,130.445 316.5,126.5C 315.914,126.709 315.414,127.043 315,127.5C 314.178,135.012 314.345,142.345 315.5,149.5C 314.5,150.833 313.5,150.833 312.5,149.5C 313.482,146.038 313.815,142.371 313.5,138.5C 313.924,134.297 313.424,130.297 312,126.5C 310.576,130.297 310.076,134.297 310.5,138.5C 310.5,142.167 310.5,145.833 310.5,149.5C 309.833,150.833 309.167,150.833 308.5,149.5C 309.655,142.345 309.822,135.012 309,127.5C 308.586,127.043 308.086,126.709 307.5,126.5C 306.509,130.445 306.176,134.445 306.5,138.5C 306.5,142.167 306.5,145.833 306.5,149.5C 305.833,150.833 305.167,150.833 304.5,149.5C 303.833,118.833 303.167,118.833 302.5,149.5C 302.44,150.043 302.107,150.376 301.5,150.5C 300.502,142.193 300.169,133.86 300.5,125.5 Z"/></g>
<g><path style="opacity:1" fill="#ef5829" d="M 163.5,128.5 C 165.448,130.448 166.948,132.781 168,135.5C 168.495,137.473 168.662,139.473 168.5,141.5C 167.5,141.5 166.5,141.5 165.5,141.5C 165.5,142.833 165.5,144.167 165.5,145.5C 164.167,145.5 162.833,145.5 161.5,145.5C 161.5,146.5 161.5,147.5 161.5,148.5C 158.813,148.664 156.146,148.497 153.5,148C 152.529,146.519 151.196,145.685 149.5,145.5C 147.495,141.856 147.328,138.189 149,134.5C 152.59,129.733 157.423,127.733 163.5,128.5 Z"/></g>
<g><path style="opacity:1" fill="#c3c4c7" d="M 330.5,149.5 C 329.833,149.5 329.167,149.5 328.5,149.5C 327.345,142.345 327.178,135.012 328,127.5C 328.414,127.043 328.914,126.709 329.5,126.5C 330.497,134.138 330.831,141.804 330.5,149.5 Z"/></g>
<g><path style="opacity:1" fill="#bb5836" d="M 163.5,128.5 C 157.423,127.733 152.59,129.733 149,134.5C 147.328,138.189 147.495,141.856 149.5,145.5C 144.675,138.157 146.008,131.99 153.5,127C 156.5,126.333 159.5,126.333 162.5,127C 163.056,127.383 163.389,127.883 163.5,128.5 Z"/></g>
<g><path style="opacity:1" fill="#b0b1b4" d="M 313.5,138.5 C 312.5,138.5 311.5,138.5 310.5,138.5C 310.076,134.297 310.576,130.297 312,126.5C 313.424,130.297 313.924,134.297 313.5,138.5 Z"/></g>
<g><path style="opacity:1" fill="#e6e6e8" d="M 321.5,149.5 C 320.833,149.5 320.167,149.5 319.5,149.5C 320.167,118.833 320.833,118.833 321.5,149.5 Z"/></g>
<g><path style="opacity:1" fill="#dc5b38" d="M 163.5,128.5 C 166.091,129.254 167.924,130.921 169,133.5C 170.387,145.777 164.887,150.943 152.5,149C 151.29,147.961 150.29,146.794 149.5,145.5C 151.196,145.685 152.529,146.519 153.5,148C 156.146,148.497 158.813,148.664 161.5,148.5C 161.5,147.5 161.5,146.5 161.5,145.5C 162.833,145.5 164.167,145.5 165.5,145.5C 165.5,144.167 165.5,142.833 165.5,141.5C 166.5,141.5 167.5,141.5 168.5,141.5C 168.662,139.473 168.495,137.473 168,135.5C 166.948,132.781 165.448,130.448 163.5,128.5 Z"/></g>
<g><path style="opacity:1" fill="#aeaeb1" d="M 317.5,138.5 C 315.586,141.684 314.92,145.351 315.5,149.5C 314.345,142.345 314.178,135.012 315,127.5C 315.414,127.043 315.914,126.709 316.5,126.5C 317.491,130.445 317.824,134.445 317.5,138.5 Z"/></g>
<g><path style="opacity:1" fill="#a8a9ac" d="M 308.5,149.5 C 309.08,145.351 308.414,141.684 306.5,138.5C 306.176,134.445 306.509,130.445 307.5,126.5C 308.086,126.709 308.586,127.043 309,127.5C 309.822,135.012 309.655,142.345 308.5,149.5 Z"/></g>
<g><path style="opacity:1" fill="#b2b2b5" d="M 325.5,149.5 C 326.08,145.351 325.414,141.684 323.5,138.5C 323.176,134.445 323.509,130.445 324.5,126.5C 325.086,126.709 325.586,127.043 326,127.5C 326.822,135.012 326.655,142.345 325.5,149.5 Z"/></g>
<g><path style="opacity:1" fill="#333334" d="M 392.5,150.5 C 378.833,150.5 365.167,150.5 351.5,150.5C 351.5,142.5 351.5,134.5 351.5,126.5C 365.167,126.5 378.833,126.5 392.5,126.5C 392.5,134.5 392.5,142.5 392.5,150.5 Z"/></g>
<g><path style="opacity:1" fill="#030303" d="M 354.5,129.5 C 365.838,129.333 377.172,129.5 388.5,130C 389.473,135.407 389.807,140.907 389.5,146.5C 377.833,146.5 366.167,146.5 354.5,146.5C 354.5,140.833 354.5,135.167 354.5,129.5 Z"/></g>
<g><path style="opacity:1" fill="#84a891" d="M 368.5,136.5 C 370.833,136.5 373.167,136.5 375.5,136.5C 374.925,140.473 372.758,141.473 369,139.5C 368.517,138.552 368.351,137.552 368.5,136.5 Z"/></g>
<g><path style="opacity:1" fill="#e3e3e5" d="M 304.5,149.5 C 303.833,149.5 303.167,149.5 302.5,149.5C 303.167,118.833 303.833,118.833 304.5,149.5 Z"/></g>
<g><path style="opacity:1" fill="#848485" d="M 300.5,125.5 C 300.169,133.86 300.502,142.193 301.5,150.5C 302.107,150.376 302.44,150.043 302.5,149.5C 303.167,149.5 303.833,149.5 304.5,149.5C 305.167,150.833 305.833,150.833 306.5,149.5C 307.167,149.5 307.833,149.5 308.5,149.5C 309.167,150.833 309.833,150.833 310.5,149.5C 311.167,149.5 311.833,149.5 312.5,149.5C 313.5,150.833 314.5,150.833 315.5,149.5C 316.167,149.5 316.833,149.5 317.5,149.5C 318.167,150.833 318.833,150.833 319.5,149.5C 320.167,149.5 320.833,149.5 321.5,149.5C 322.167,150.833 322.833,150.833 323.5,149.5C 324.167,149.5 324.833,149.5 325.5,149.5C 326.5,150.833 327.5,150.833 328.5,149.5C 329.167,149.5 329.833,149.5 330.5,149.5C 330.842,150.338 331.508,150.672 332.5,150.5C 332.5,150.833 332.5,151.167 332.5,151.5C 321.5,151.5 310.5,151.5 299.5,151.5C 299.5,147.167 299.5,142.833 299.5,138.5C 299.182,133.968 299.515,129.634 300.5,125.5 Z"/></g>
<g><path style="opacity:1" fill="#b5b5b8" d="M 349.5,138.5 C 350.167,142.5 350.833,146.5 351.5,150.5C 365.167,150.5 378.833,150.5 392.5,150.5C 393.167,146.5 393.833,142.5 394.5,138.5C 394.5,142.833 394.5,147.167 394.5,151.5C 379.5,151.5 364.5,151.5 349.5,151.5C 349.5,147.167 349.5,142.833 349.5,138.5 Z"/></g>
<g><path style="opacity:1" fill="#dcdcdd" d="M 298.5,124.5 C 298.181,129.363 298.514,134.03 299.5,138.5C 299.5,142.833 299.5,147.167 299.5,151.5C 310.5,151.5 321.5,151.5 332.5,151.5C 333.167,147.167 333.833,142.833 334.5,138.5C 334.803,143.43 334.469,148.263 333.5,153C 322.167,153.667 310.833,153.667 299.5,153C 299,152.5 298.5,152 298,151.5C 297.176,142.324 297.343,133.324 298.5,124.5 Z"/></g>
<g><path style="opacity:1" fill="#dddddf" d="M 310.5,138.5 C 311.5,138.5 312.5,138.5 313.5,138.5C 313.815,142.371 313.482,146.038 312.5,149.5C 311.833,149.5 311.167,149.5 310.5,149.5C 310.5,145.833 310.5,142.167 310.5,138.5 Z"/></g>
<g><path style="opacity:1" fill="#efeff1" d="M 317.5,138.5 C 317.5,142.167 317.5,145.833 317.5,149.5C 316.833,149.5 316.167,149.5 315.5,149.5C 314.92,145.351 315.586,141.684 317.5,138.5 Z"/></g>
<g><path style="opacity:1" fill="#f6f6f7" d="M 323.5,138.5 C 325.414,141.684 326.08,145.351 325.5,149.5C 324.833,149.5 324.167,149.5 323.5,149.5C 323.5,145.833 323.5,142.167 323.5,138.5 Z"/></g>
<g><path style="opacity:1" fill="#f4f4f5" d="M 306.5,138.5 C 308.414,141.684 309.08,145.351 308.5,149.5C 307.833,149.5 307.167,149.5 306.5,149.5C 306.5,145.833 306.5,142.167 306.5,138.5 Z"/></g>
<g><path style="opacity:1" fill="#6c6b6e" d="M 349.5,124.5 C 349.5,129.167 349.5,133.833 349.5,138.5C 349.5,142.833 349.5,147.167 349.5,151.5C 364.5,151.5 379.5,151.5 394.5,151.5C 394.833,151.5 395.167,151.5 395.5,151.5C 395.389,152.117 395.056,152.617 394.5,153C 379.5,153.667 364.5,153.667 349.5,153C 348.172,143.402 348.172,133.902 349.5,124.5 Z"/></g>
<g><path style="opacity:1" fill="#bbbdbe" d="M 299.5,159.5 C 337.167,159.5 374.833,159.5 412.5,159.5C 412.5,161.167 412.5,162.833 412.5,164.5C 376.833,164.5 341.167,164.5 305.5,164.5C 302.891,163.557 300.891,161.89 299.5,159.5 Z"/></g>
<g><path style="opacity:1" fill="#bbbebe" d="M 34.5,136.5 C 34.5,144.167 34.5,151.833 34.5,159.5C 89.5,159.5 144.5,159.5 199.5,159.5C 197.192,161.471 194.858,163.471 192.5,165.5C 140.003,164.501 87.336,164.168 34.5,164.5C 34.5,167.5 34.5,170.5 34.5,173.5C 34.1667,173.5 33.8333,173.5 33.5,173.5C 33.1714,160.989 33.5048,148.655 34.5,136.5 Z"/></g>
<g><path style="opacity:1" fill="#fcfcfc" d="M 192.5,165.5 C 190.167,168.167 187.833,170.833 185.5,173.5C 135.167,173.5 84.8333,173.5 34.5,173.5C 34.5,170.5 34.5,167.5 34.5,164.5C 87.336,164.168 140.003,164.501 192.5,165.5 Z"/></g>
<g><path style="opacity:1" fill="#fcfcfc" d="M 305.5,164.5 C 341.167,164.5 376.833,164.5 412.5,164.5C 414.388,166.988 415.055,169.988 414.5,173.5C 380.833,173.5 347.167,173.5 313.5,173.5C 310.862,170.526 308.195,167.526 305.5,164.5 Z"/></g>
<g><path style="opacity:1" fill="#dbf0de" d="M 415.5,182.5 C 421.166,183.105 426.833,183.938 432.5,185C 437.28,188.842 438.947,193.676 437.5,199.5C 437.167,199.5 436.833,199.5 436.5,199.5C 437.285,195.404 436.118,192.07 433,189.5C 432.536,190.094 432.369,190.761 432.5,191.5C 429.206,188.342 425.539,187.842 421.5,190C 418.661,194.132 418.994,197.965 422.5,201.5C 421.417,201.461 420.417,201.127 419.5,200.5C 417.985,195.34 418.651,190.506 421.5,186C 419.414,185.685 417.414,185.185 415.5,184.5C 415.5,183.833 415.5,183.167 415.5,182.5 Z"/></g>
<g><path style="opacity:1" fill="#96a19c" d="M 33.5,173.5 C 33.8333,173.5 34.1667,173.5 34.5,173.5C 34.5,184.5 34.5,195.5 34.5,206.5C 34.1667,206.5 33.8333,206.5 33.5,206.5C 34.1318,198.427 33.4651,190.76 31.5,183.5C 33.273,180.512 33.9396,177.179 33.5,173.5 Z"/></g>
<g><path style="opacity:1" fill="#0d0d0f" d="M 299.5,159.5 C 300.891,161.89 302.891,163.557 305.5,164.5C 308.195,167.526 310.862,170.526 313.5,173.5C 328.329,191.789 334.662,212.789 332.5,236.5C 330.171,251.469 324.505,265.136 315.5,277.5C 315.709,278.086 316.043,278.586 316.5,279C 314.552,279.983 312.718,281.15 311,282.5C 310.148,281.429 309.315,280.429 308.5,279.5C 331.057,251.481 334.557,221.147 319,188.5C 300.335,158.258 273.168,144.758 237.5,148C 201.525,155.308 179.359,176.808 171,212.5C 166.867,258.762 186.7,289.262 230.5,304C 258.67,309.294 283.337,302.461 304.5,283.5C 306.017,283.489 307.184,282.823 308,281.5C 309.578,282.711 309.745,284.045 308.5,285.5C 279.839,311.388 247.839,316.721 212.5,301.5C 211.573,303.946 209.906,304.779 207.5,304C 206.253,302.542 206.253,301.042 207.5,299.5C 205.424,297.712 203.257,296.046 201,294.5C 200.693,297.876 198.86,299.21 195.5,298.5C 194.965,295.762 195.965,293.928 198.5,293C 191.825,287.324 185.825,280.991 180.5,274C 174.281,275.133 173.281,273.466 177.5,269C 172.352,260.054 168.686,250.554 166.5,240.5C 163.313,215.277 169.646,192.943 185.5,173.5C 187.833,170.833 190.167,168.167 192.5,165.5C 194.858,163.471 197.192,161.471 199.5,159.5C 232.839,138.167 266.173,138.167 299.5,159.5 Z M 244.5,213.5 C 260.26,213.352 265.427,220.685 260,235.5C 252.302,242.424 244.969,242.09 238,234.5C 234.044,225.536 236.211,218.536 244.5,213.5 Z"/></g>
<g><path style="opacity:1" fill="#e9e9e9" d="M 308.5,279.5 C 306.833,280.5 305.5,281.833 304.5,283.5C 283.337,302.461 258.67,309.294 230.5,304C 186.7,289.262 166.867,258.762 171,212.5C 179.359,176.808 201.525,155.308 237.5,148C 273.168,144.758 300.335,158.258 319,188.5C 334.557,221.147 331.057,251.481 308.5,279.5 Z M 244.5,213.5 C 236.211,218.536 234.044,225.536 238,234.5C 244.969,242.09 252.302,242.424 260,235.5C 265.427,220.685 260.26,213.352 244.5,213.5 Z"/></g>
<g><path style="opacity:1" fill="#282828" d="M 284.5,253.5 C 283.833,254.167 283.167,254.833 282.5,255.5C 281.726,254.853 280.726,254.52 279.5,254.5C 258.166,257.109 236.833,257.109 215.5,254.5C 215.167,254.5 214.833,254.5 214.5,254.5C 199.907,230.147 203.24,208.647 224.5,190C 250.153,176.872 271.319,182.038 288,205.5C 296.185,222.254 295.019,238.254 284.5,253.5 Z M 244.5,213.5 C 236.211,218.536 234.044,225.536 238,234.5C 244.969,242.09 252.302,242.424 260,235.5C 265.427,220.685 260.26,213.352 244.5,213.5 Z"/></g>
<g><path style="opacity:1" fill="#4f4f51" d="M 304.5,247.5 C 303.833,247.5 303.5,247.833 303.5,248.5C 297.448,251.013 291.115,252.68 284.5,253.5C 295.019,238.254 296.185,222.254 288,205.5C 271.319,182.038 250.153,176.872 224.5,190C 203.24,208.647 199.907,230.147 214.5,254.5C 208.134,252.96 201.8,251.293 195.5,249.5C 195.167,248.833 194.833,248.167 194.5,247.5C 185.066,212.289 196.733,186.789 229.5,171C 263.757,162.73 288.59,174.23 304,205.5C 308.462,219.442 308.628,233.442 304.5,247.5 Z M 244.5,213.5 C 236.211,218.536 234.044,225.536 238,234.5C 244.969,242.09 252.302,242.424 260,235.5C 265.427,220.685 260.26,213.352 244.5,213.5 Z"/></g>
<g><path style="opacity:1" fill="#282829" d="M 322.5,237.5 C 322.649,236.448 322.483,235.448 322,234.5C 317.679,240.906 311.846,245.24 304.5,247.5C 308.628,233.442 308.462,219.442 304,205.5C 288.59,174.23 263.757,162.73 229.5,171C 196.733,186.789 185.066,212.289 194.5,247.5C 187.673,245.498 181.839,241.832 177,236.5C 176.517,237.448 176.351,238.448 176.5,239.5C 171.645,203.379 185.311,176.545 217.5,159C 252.623,145.49 282.79,152.656 308,180.5C 320.975,197.563 325.808,216.563 322.5,237.5 Z M 244.5,213.5 C 236.211,218.536 234.044,225.536 238,234.5C 244.969,242.09 252.302,242.424 260,235.5C 265.427,220.685 260.26,213.352 244.5,213.5 Z"/></g>
<g><path style="opacity:1" fill="#e8f6e9" d="M 31.5,183.5 C 33.4651,190.76 34.1318,198.427 33.5,206.5C 28.4889,206.666 23.4889,206.499 18.5,206C 15.6424,204.306 13.309,202.139 11.5,199.5C 9.83299,191.999 12.4997,186.832 19.5,184C 23.4862,183.501 27.4862,183.334 31.5,183.5 Z M 27.5,199.5 C 26.6851,200.837 25.5185,201.837 24,202.5C 21.6252,201.871 19.4586,200.871 17.5,199.5C 19.1175,198.028 21.1175,197.361 23.5,197.5C 25.3328,197.585 26.6661,198.252 27.5,199.5 Z M 29.5,196.5 C 28.6364,195.312 27.6364,194.145 26.5,193C 22.9304,192.738 19.5971,192.571 16.5,192.5C 19.7185,188.405 23.5518,187.738 28,190.5C 29.128,192.345 29.628,194.345 29.5,196.5 Z"/></g>
<g><path style="opacity:0.514" fill="#72a982" d="M 16.5,192.5 C 19.5971,192.571 22.9304,192.738 26.5,193C 27.6364,194.145 28.6364,195.312 29.5,196.5C 29.0679,197.71 28.4013,198.71 27.5,199.5C 26.6661,198.252 25.3328,197.585 23.5,197.5C 21.1175,197.361 19.1175,198.028 17.5,199.5C 15.466,197.345 15.1326,195.012 16.5,192.5 Z"/></g>
<g><path style="opacity:1" fill="#f1faf0" d="M 415.5,184.5 C 417.414,185.185 419.414,185.685 421.5,186C 418.651,190.506 417.985,195.34 419.5,200.5C 420.417,201.127 421.417,201.461 422.5,201.5C 426.095,203.183 429.095,202.517 431.5,199.5C 433.026,198.508 433.693,197.008 433.5,195C 433.486,193.615 433.152,192.449 432.5,191.5C 432.369,190.761 432.536,190.094 433,189.5C 436.118,192.07 437.285,195.404 436.5,199.5C 435.876,201.754 434.543,203.421 432.5,204.5C 428.369,206.183 424.036,206.85 419.5,206.5C 418.167,206.5 416.833,206.5 415.5,206.5C 415.5,199.167 415.5,191.833 415.5,184.5 Z"/></g>
<g><path style="opacity:0.141" fill="#77ab8f" d="M 432.5,191.5 C 433.152,192.449 433.486,193.615 433.5,195C 433.693,197.008 433.026,198.508 431.5,199.5C 430.722,198.844 430.056,198.011 429.5,197C 431.112,195.518 432.112,193.685 432.5,191.5 Z"/></g>
<g><path style="opacity:1" fill="#709d80" d="M 414.5,173.5 C 414.833,173.5 415.167,173.5 415.5,173.5C 415.5,176.5 415.5,179.5 415.5,182.5C 415.5,183.167 415.5,183.833 415.5,184.5C 415.5,191.833 415.5,199.167 415.5,206.5C 416.833,206.5 418.167,206.5 419.5,206.5C 421.697,211.662 425.364,212.829 430.5,210C 433.082,208.662 433.749,206.829 432.5,204.5C 434.543,203.421 435.876,201.754 436.5,199.5C 436.833,199.5 437.167,199.5 437.5,199.5C 439.053,206.553 436.72,211.719 430.5,215C 425.511,215.499 420.511,215.666 415.5,215.5C 415.5,249.5 415.5,283.5 415.5,317.5C 415.167,317.5 414.833,317.5 414.5,317.5C 414.5,269.5 414.5,221.5 414.5,173.5 Z"/></g>
<g><path style="opacity:0.367" fill="#8fcaa0" d="M 432.5,204.5 C 433.749,206.829 433.082,208.662 430.5,210C 425.364,212.829 421.697,211.662 419.5,206.5C 424.036,206.85 428.369,206.183 432.5,204.5 Z"/></g>
<g><path style="opacity:1" fill="#75ad87" d="M 11.5,199.5 C 13.309,202.139 15.6424,204.306 18.5,206C 23.4889,206.499 28.4889,206.666 33.5,206.5C 33.5,209.5 33.5,212.5 33.5,215.5C 28.4889,215.666 23.4889,215.499 18.5,215C 12.3004,211.757 9.96702,206.591 11.5,199.5 Z M 18.5,207.5 C 20.8568,207.337 23.1902,207.503 25.5,208C 22.816,210.145 20.4827,209.978 18.5,207.5 Z"/></g>
<g><path style="opacity:1" fill="#29392e" d="M 244.5,211.5 C 250.423,210.775 255.923,211.775 261,214.5C 264.135,220.993 265.302,227.993 264.5,235.5C 261.532,235.626 259.532,237.126 258.5,240C 256.337,240.245 254.67,241.245 253.5,243C 246.145,243.095 239.978,240.262 235,234.5C 234.368,228.786 234.701,223.119 236,217.5C 238.562,215.016 241.395,213.016 244.5,211.5 Z M 244.5,213.5 C 236.211,218.536 234.044,225.536 238,234.5C 244.969,242.09 252.302,242.424 260,235.5C 265.427,220.685 260.26,213.352 244.5,213.5 Z"/></g>
<g><path style="opacity:1" fill="#56575a" d="M 336.5,253.5 C 336.253,250.061 336.586,246.728 337.5,243.5C 345.824,237.988 351.324,230.321 354,220.5C 357.771,216.212 362.271,215.379 367.5,218C 372.057,224.151 371.057,229.318 364.5,233.5C 361.011,239.468 358.845,245.801 358,252.5C 354.534,260.445 348.701,262.612 340.5,259C 338.531,257.5 337.198,255.667 336.5,253.5 Z"/></g>
<g><path style="opacity:1" fill="#040404" d="M 322.5,237.5 C 314.186,277.263 289.686,298.596 249,301.5C 215.073,299.562 191.74,282.895 179,251.5C 177.846,247.553 177.013,243.553 176.5,239.5C 176.351,238.448 176.517,237.448 177,236.5C 181.839,241.832 187.673,245.498 194.5,247.5C 194.833,248.167 195.167,248.833 195.5,249.5C 206.141,271.943 223.975,283.943 249,285.5C 274.806,284.196 292.973,271.863 303.5,248.5C 303.5,247.833 303.833,247.5 304.5,247.5C 311.846,245.24 317.679,240.906 322,234.5C 322.483,235.448 322.649,236.448 322.5,237.5 Z"/></g>
<g><path style="opacity:1" fill="#292c31" d="M 34.5,173.5 C 84.8333,173.5 135.167,173.5 185.5,173.5C 169.646,192.943 163.313,215.277 166.5,240.5C 165.309,266.118 165.309,291.784 166.5,317.5C 122.5,317.5 78.5,317.5 34.5,317.5C 34.5,280.5 34.5,243.5 34.5,206.5C 34.5,195.5 34.5,184.5 34.5,173.5 Z"/></g>
<g><path style="opacity:1" fill="#808084" d="M 344.5,241.5 C 351.985,241.483 355.485,245.15 355,252.5C 352.459,257.069 348.625,258.569 343.5,257C 341.667,256.5 340.5,255.333 340,253.5C 338.309,248.131 339.809,244.131 344.5,241.5 Z"/></g>
<g><path style="opacity:1" fill="#1b1d22" d="M 332.5,236.5 C 332.343,237.873 332.51,239.207 333,240.5C 335.528,239.481 337.028,240.481 337.5,243.5C 336.586,246.728 336.253,250.061 336.5,253.5C 336.5,254.5 336.5,255.5 336.5,256.5C 335.167,256.5 333.833,256.5 332.5,256.5C 332.5,259.167 332.5,261.833 332.5,264.5C 333.833,264.5 335.167,264.5 336.5,264.5C 336.657,265.873 336.49,267.207 336,268.5C 335.259,269.641 334.425,269.641 333.5,268.5C 332.52,271.086 332.187,273.753 332.5,276.5C 333.833,276.5 335.167,276.5 336.5,276.5C 336.5,277.833 336.5,279.167 336.5,280.5C 335.167,280.5 333.833,280.5 332.5,280.5C 332.5,282.833 332.5,285.167 332.5,287.5C 335.91,287.384 337.244,289.05 336.5,292.5C 335.167,292.5 333.833,292.5 332.5,292.5C 332.5,294.833 332.5,297.167 332.5,299.5C 333.833,299.5 335.167,299.5 336.5,299.5C 337.244,302.95 335.91,304.616 332.5,304.5C 332.5,308.833 332.5,313.167 332.5,317.5C 277.167,317.5 221.833,317.5 166.5,317.5C 165.309,291.784 165.309,266.118 166.5,240.5C 168.686,250.554 172.352,260.054 177.5,269C 173.281,273.466 174.281,275.133 180.5,274C 185.825,280.991 191.825,287.324 198.5,293C 195.965,293.928 194.965,295.762 195.5,298.5C 198.86,299.21 200.693,297.876 201,294.5C 203.257,296.046 205.424,297.712 207.5,299.5C 206.253,301.042 206.253,302.542 207.5,304C 209.906,304.779 211.573,303.946 212.5,301.5C 247.839,316.721 279.839,311.388 308.5,285.5C 309.745,284.045 309.578,282.711 308,281.5C 307.184,282.823 306.017,283.489 304.5,283.5C 305.5,281.833 306.833,280.5 308.5,279.5C 309.315,280.429 310.148,281.429 311,282.5C 312.718,281.15 314.552,279.983 316.5,279C 316.043,278.586 315.709,278.086 315.5,277.5C 324.505,265.136 330.171,251.469 332.5,236.5 Z"/></g>
<g><path style="opacity:1" fill="#39393b" d="M 303.5,248.5 C 292.973,271.863 274.806,284.196 249,285.5C 223.975,283.943 206.141,271.943 195.5,249.5C 201.8,251.293 208.134,252.96 214.5,254.5C 214.833,254.5 215.167,254.5 215.5,254.5C 229.498,270.272 246.498,274.439 266.5,267C 272.783,264.37 278.117,260.537 282.5,255.5C 283.167,254.833 283.833,254.167 284.5,253.5C 291.115,252.68 297.448,251.013 303.5,248.5 Z"/></g>
<g><path style="opacity:1" fill="#030303" d="M 215.5,254.5 C 236.833,257.109 258.166,257.109 279.5,254.5C 280.726,254.52 281.726,254.853 282.5,255.5C 278.117,260.537 272.783,264.37 266.5,267C 246.498,274.439 229.498,270.272 215.5,254.5 Z"/></g>
<g><path style="opacity:1" fill="#292b30" d="M 313.5,173.5 C 347.167,173.5 380.833,173.5 414.5,173.5C 414.5,221.5 414.5,269.5 414.5,317.5C 387.167,317.5 359.833,317.5 332.5,317.5C 332.5,313.167 332.5,308.833 332.5,304.5C 335.91,304.616 337.244,302.95 336.5,299.5C 335.167,299.5 333.833,299.5 332.5,299.5C 332.5,297.167 332.5,294.833 332.5,292.5C 333.833,292.5 335.167,292.5 336.5,292.5C 337.244,289.05 335.91,287.384 332.5,287.5C 332.5,285.167 332.5,282.833 332.5,280.5C 333.833,280.5 335.167,280.5 336.5,280.5C 336.5,279.167 336.5,277.833 336.5,276.5C 335.167,276.5 333.833,276.5 332.5,276.5C 332.187,273.753 332.52,271.086 333.5,268.5C 334.425,269.641 335.259,269.641 336,268.5C 336.49,267.207 336.657,265.873 336.5,264.5C 335.167,264.5 333.833,264.5 332.5,264.5C 332.5,261.833 332.5,259.167 332.5,256.5C 333.833,256.5 335.167,256.5 336.5,256.5C 336.5,255.5 336.5,254.5 336.5,253.5C 337.198,255.667 338.531,257.5 340.5,259C 348.701,262.612 354.534,260.445 358,252.5C 358.845,245.801 361.011,239.468 364.5,233.5C 371.057,229.318 372.057,224.151 367.5,218C 362.271,215.379 357.771,216.212 354,220.5C 351.324,230.321 345.824,237.988 337.5,243.5C 337.028,240.481 335.528,239.481 333,240.5C 332.51,239.207 332.343,237.873 332.5,236.5C 334.662,212.789 328.329,191.789 313.5,173.5 Z"/></g>
<g><path style="opacity:1" fill="#3a3a3c" d="M 353.5,230.5 C 356.069,231.463 358.402,232.796 360.5,234.5C 359.462,237.469 357.962,240.136 356,242.5C 353.707,240.628 351.207,239.128 348.5,238C 350.389,235.618 352.055,233.118 353.5,230.5 Z"/></g>
<g><path style="opacity:1" fill="#807f83" d="M 358.5,219.5 C 367.797,218.797 369.797,222.13 364.5,229.5C 359.632,231.232 356.632,229.566 355.5,224.5C 356.092,222.577 357.092,220.911 358.5,219.5 Z"/></g>
<g><path style="opacity:1" fill="#fefefe" d="M 34.5,318.5 C 78.1679,318.333 121.835,318.5 165.5,319C 121.998,319.167 78.6647,319.667 35.5,320.5C 34.6618,320.158 34.3284,319.492 34.5,318.5 Z"/></g>
<g><path style="opacity:1" fill="#a2a1a4" d="M 166.5,317.5 C 221.833,317.5 277.167,317.5 332.5,317.5C 332.5,318.5 332.5,319.5 332.5,320.5C 277.167,320.5 221.833,320.5 166.5,320.5C 166.5,319.5 166.5,318.5 166.5,317.5 Z"/></g>
<g><path style="opacity:1" fill="#e1e1e3" d="M 34.5,318.5 C 34.5,318.167 34.5,317.833 34.5,317.5C 78.5,317.5 122.5,317.5 166.5,317.5C 166.5,318.5 166.5,319.5 166.5,320.5C 122.833,320.5 79.1667,320.5 35.5,320.5C 78.6647,319.667 121.998,319.167 165.5,319C 121.835,318.5 78.1679,318.333 34.5,318.5 Z"/></g>
<g><path style="opacity:1" fill="#e9e9eb" d="M 332.5,317.5 C 359.833,317.5 387.167,317.5 414.5,317.5C 414.5,318.5 414.5,319.5 414.5,320.5C 387.167,320.5 359.833,320.5 332.5,320.5C 332.5,319.5 332.5,318.5 332.5,317.5 Z"/></g>
<g><path style="opacity:1" fill="#b9baba" d="M 35.5,320.5 C 79.1667,320.5 122.833,320.5 166.5,320.5C 166.5,321.167 166.5,321.833 166.5,322.5C 122.833,322.5 79.1667,322.5 35.5,322.5C 35.5,321.833 35.5,321.167 35.5,320.5 Z"/></g>
<g><path style="opacity:1" fill="#7f7f80" d="M 166.5,320.5 C 221.833,320.5 277.167,320.5 332.5,320.5C 332.5,321.167 332.5,321.833 332.5,322.5C 277.167,322.5 221.833,322.5 166.5,322.5C 166.5,321.833 166.5,321.167 166.5,320.5 Z"/></g>
<g><path style="opacity:1" fill="#b8bbba" d="M 414.5,317.5 C 414.833,317.5 415.167,317.5 415.5,317.5C 415.5,321.5 415.5,325.5 415.5,329.5C 415.167,329.5 414.833,329.5 414.5,329.5C 414.5,328.833 414.167,328.5 413.5,328.5C 414.341,326.621 414.675,324.621 414.5,322.5C 387.167,322.5 359.833,322.5 332.5,322.5C 332.5,321.833 332.5,321.167 332.5,320.5C 359.833,320.5 387.167,320.5 414.5,320.5C 414.5,319.5 414.5,318.5 414.5,317.5 Z"/></g>
<g><path style="opacity:1" fill="#dbe3dd" d="M 35.5,322.5 C 79.1667,322.5 122.833,322.5 166.5,322.5C 166.5,325.833 166.5,329.167 166.5,332.5C 124.67,333.499 82.67,333.832 40.5,333.5C 40.5,333.167 40.5,332.833 40.5,332.5C 82.1667,332.5 123.833,332.5 165.5,332.5C 165.5,329.5 165.5,326.5 165.5,323.5C 121.997,323.832 78.6635,323.499 35.5,322.5 Z"/></g>
<g><path style="opacity:1" fill="#fdfefd" d="M 35.5,322.5 C 78.6635,323.499 121.997,323.832 165.5,323.5C 165.5,326.5 165.5,329.5 165.5,332.5C 123.833,332.5 82.1667,332.5 40.5,332.5C 35.5632,330.628 33.8965,327.295 35.5,322.5 Z"/></g>
<g><path style="opacity:1" fill="#a8a7a6" d="M 166.5,322.5 C 221.833,322.5 277.167,322.5 332.5,322.5C 332.5,325.833 332.5,329.167 332.5,332.5C 277.167,332.5 221.833,332.5 166.5,332.5C 166.5,329.167 166.5,325.833 166.5,322.5 Z"/></g>
<g><path style="opacity:1" fill="#f6f9f7" d="M 332.5,322.5 C 359.833,322.5 387.167,322.5 414.5,322.5C 414.675,324.621 414.341,326.621 413.5,328.5C 412.139,330.527 410.473,332.194 408.5,333.5C 382.995,333.831 357.661,333.498 332.5,332.5C 332.5,329.167 332.5,325.833 332.5,322.5 Z"/></g>
<g><path style="opacity:1" fill="#6da081" d="M 33.5,206.5 C 33.8333,206.5 34.1667,206.5 34.5,206.5C 34.5,243.5 34.5,280.5 34.5,317.5C 34.5,317.833 34.5,318.167 34.5,318.5C 34.3284,319.492 34.6618,320.158 35.5,320.5C 35.5,321.167 35.5,321.833 35.5,322.5C 33.8965,327.295 35.5632,330.628 40.5,332.5C 40.5,332.833 40.5,333.167 40.5,333.5C 163.167,334.833 285.833,334.833 408.5,333.5C 410.473,332.194 412.139,330.527 413.5,328.5C 414.167,328.5 414.5,328.833 414.5,329.5C 411.946,334.891 407.779,338.224 402,339.5C 282.57,338.668 163.07,338.168 43.5,338C 39.353,337.527 36.5197,335.361 35,331.5C 34.6174,332.056 34.1174,332.389 33.5,332.5C 33.5,293.5 33.5,254.5 33.5,215.5C 33.5,212.5 33.5,209.5 33.5,206.5 Z"/></g>
<g><path style="opacity:1" fill="#6ca67f" d="M 414.5,329.5 C 414.833,329.5 415.167,329.5 415.5,329.5C 416.109,335.46 413.776,339.627 408.5,342C 285.833,342.667 163.167,342.667 40.5,342C 35.6826,340.68 33.3492,337.514 33.5,332.5C 34.1174,332.389 34.6174,332.056 35,331.5C 36.5197,335.361 39.353,337.527 43.5,338C 163.07,338.168 282.57,338.668 402,339.5C 407.779,338.224 411.946,334.891 414.5,329.5 Z"/></g>
<g><path style="opacity:1" fill="#759b84" d="M 166.5,332.5 C 221.833,332.5 277.167,332.5 332.5,332.5C 357.661,333.498 382.995,333.831 408.5,333.5C 285.833,334.833 163.167,334.833 40.5,333.5C 82.67,333.832 124.67,333.499 166.5,332.5 Z"/></g>
</svg>
