<?xml version="1.0" encoding="UTF-8"?>
<svg version="1.1" xmlns="http://www.w3.org/2000/svg" width="635" height="822">
<path d="M0 0 C209.55 0 419.1 0 635 0 C635 271.26 635 542.52 635 822 C425.45 822 215.9 822 0 822 C0 550.74 0 279.48 0 0 Z " fill="#2A2A2A" transform="translate(0,0)"/>
<path d="M0 0 C209.55 0 419.1 0 635 0 C635 271.26 635 542.52 635 822 C425.45 822 215.9 822 0 822 C0 550.74 0 279.48 0 0 Z M78.65646029 59.52199376 C76.25019326 64.57434051 76.44976434 69.11749785 76.49663544 74.6480999 C76.49082167 75.83448777 76.48500791 77.02087565 76.47901797 78.24321467 C76.46691664 81.54294402 76.47277022 84.84176463 76.48612978 88.14143126 C76.49626428 91.72861913 76.48324185 95.3157346 76.47315645 98.90291226 C76.45869523 105.19210355 76.45915674 111.48115756 76.46934509 117.77035522 C76.48445439 127.12257985 76.47675081 136.47468833 76.46451186 145.82691213 C76.44342872 162.52900309 76.4452826 179.23103292 76.45682751 195.93312973 C76.466882 210.55047973 76.46952017 225.16780731 76.46473694 239.78516006 C76.4644314 240.75402937 76.46412586 241.72289868 76.46381106 242.72112767 C76.46256574 246.65391299 76.46129214 250.5866983 76.459972 254.51948359 C76.44772993 291.42900884 76.45883911 328.33849512 76.48035959 365.24801436 C76.49933968 398.04996665 76.49764672 430.85185684 76.47851562 463.65380859 C76.4571024 500.49196391 76.44860107 537.33008476 76.46096468 574.16824543 C76.46224758 578.09456642 76.46349894 582.02088741 76.46473694 585.9472084 C76.46505325 586.91399535 76.46536956 587.8807823 76.46569545 588.87686583 C76.47024783 603.4847217 76.46491954 618.09255269 76.45481873 632.70040512 C76.44339144 649.30960396 76.44622001 665.91873202 76.4679417 682.52792202 C76.47970119 691.82671485 76.48043303 701.12535444 76.465357 710.42414335 C76.45640058 716.63246794 76.46194585 722.84066945 76.47937608 729.04897578 C76.48890771 732.58829854 76.49211105 736.12731642 76.47775215 739.66662978 C76.46244704 743.47798887 76.47800397 747.28886538 76.49663544 751.10021782 C76.48727077 752.20052843 76.47790611 753.30083905 76.46825767 754.43449241 C76.53023819 760.74658738 77.08765208 765.86557098 81 771 C85.46687444 775.02626 89.36855047 775.57605419 95.18104362 775.50336456 C96.398397 775.51208521 96.398397 775.51208521 97.64034337 775.52098203 C100.36533777 775.53560354 103.08943447 775.52168686 105.81442261 775.50793457 C107.78555866 775.51254264 109.75669129 775.51889493 111.7278167 775.52684355 C117.14886121 775.54357305 122.56962479 775.53527394 127.99067044 775.52289867 C133.83537294 775.51386524 139.68002641 775.52780952 145.52471924 775.53881836 C156.97681509 775.55662705 168.42880622 775.55275291 179.88090621 775.5411678 C189.18753224 775.53214212 198.49412403 775.53090573 207.80075455 775.53526306 C208.46185487 775.5355686 209.1229552 775.53587414 209.80408887 775.53618894 C212.48769189 775.53743429 215.17129489 775.53870789 217.85489788 775.540028 C243.03454061 775.55226668 268.21412619 775.54116642 293.39376009 775.51964041 C315.76335116 775.50066209 338.13285114 775.50235248 360.50244141 775.52148438 C385.63282898 775.54290561 410.76316604 775.55139434 435.89356148 775.53903532 C438.57291228 775.53775245 441.2522631 775.53650109 443.93161392 775.53526306 C445.24996301 775.53464596 446.56831209 775.53402886 447.92661115 775.53339306 C457.22238653 775.52993762 466.51812962 775.53577277 475.81389999 775.54518127 C487.14205065 775.55639452 498.47009043 775.55337547 509.79822837 775.5320583 C515.57943393 775.52153828 521.36045455 775.51744239 527.14165878 775.53065491 C532.43294353 775.54256491 537.72387174 775.53603889 543.0151241 775.5147447 C544.93027945 775.51027272 546.84546485 775.51255822 548.76060091 775.52224785 C551.36325393 775.53440685 553.96468483 775.52194196 556.56727409 775.50336456 C557.31142002 775.51272923 558.05556595 775.52209389 558.82226175 775.53174233 C564.20824032 775.45486879 568.6847678 774.35084437 573 771 C577.86595895 765.22802008 577.56450456 758.28392307 577.50336456 751.10021782 C577.51208521 749.31627569 577.51208521 749.31627569 577.52098203 747.49629432 C577.53305688 744.19774846 577.52725207 740.9001159 577.51387022 737.60163363 C577.50371526 734.01228387 577.51676624 730.42300558 577.52684355 726.83366597 C577.54128962 720.54383942 577.54085254 714.2541502 577.53065491 707.96431732 C577.51553209 698.61128723 577.52325614 689.2583731 577.53548814 679.9053438 C577.5565596 663.2019721 577.55472228 646.49866156 577.54317249 629.79528403 C577.53311544 615.17925226 577.53048105 600.56324292 577.53526306 585.9472084 C577.5355686 584.97818632 577.53587414 584.00916424 577.53618894 583.01077786 C577.53743426 579.0773527 577.53870786 575.14392754 577.540028 571.21050241 C577.55226691 534.30437508 577.54116518 497.39828675 577.51964041 460.49216544 C577.50065465 427.68990582 577.50235868 394.8877083 577.52148438 362.08544922 C577.54289308 325.24436875 577.55140198 288.40332273 577.53903532 251.56223691 C577.53775242 247.63654463 577.53650106 243.71085235 577.53526306 239.78516006 C577.5347886 238.33521687 577.5347886 238.33521687 577.53430455 236.8559819 C577.52975089 222.24631324 577.5350827 207.63666945 577.54518127 193.02700424 C577.55660313 176.41999255 577.55379134 159.81305167 577.5320583 143.20604883 C577.52029083 133.90682522 577.51957848 124.60775487 577.534643 115.30853515 C577.54358959 109.10254699 577.53807208 102.89668211 577.52062392 96.69071226 C577.51107871 93.15111878 577.50791692 89.61183052 577.52224785 86.0722463 C577.53750968 82.26403343 577.52202626 78.456306 577.50336456 74.6480999 C577.51272923 73.54310695 577.52209389 72.43811401 577.53174233 71.29963642 C577.47340771 65.38800742 577.20685735 61.52719786 573 57 C568.42133478 53.07866221 564.63082093 52.42386059 558.78213501 52.49663544 C557.96659015 52.49082167 557.1510453 52.48500791 556.31078696 52.47901797 C553.57228865 52.46439578 550.8346835 52.47831345 548.09619141 52.49206543 C546.11538039 52.4874574 544.13457278 52.48110514 542.15377235 52.47315645 C536.70606392 52.45642668 531.25863505 52.46472615 525.81092548 52.47710133 C519.93763121 52.48613454 514.06438572 52.47219068 508.19110107 52.46118164 C496.68352844 52.44337337 485.17606002 52.44724671 473.66848326 52.4588322 C464.31798498 52.46799887 454.96750654 52.46920045 445.61700439 52.46473694 C444.95284113 52.4644314 444.28867786 52.46412586 443.60438843 52.46381106 C440.90838904 52.46256572 438.21238966 52.46129212 435.5163903 52.459972 C410.22158241 52.44773373 384.92683141 52.45883345 359.63203231 52.48035959 C337.15504835 52.49934228 314.67815504 52.49764378 292.20117188 52.47851562 C266.95287625 52.45710092 241.70463089 52.44860163 216.45632744 52.46096468 C213.76521684 52.46224757 211.07410623 52.46349893 208.38299561 52.46473694 C207.38905257 52.4652114 207.38905257 52.4652114 206.37502988 52.46569545 C196.36501605 52.47024693 186.35503904 52.46489651 176.34503174 52.45481873 C164.96412323 52.44361288 153.58332511 52.44660905 142.20242929 52.4679417 C136.39311807 52.47847109 130.58399105 52.48254169 124.77468109 52.46934509 C119.46006266 52.45745463 114.14579974 52.46392858 108.83121371 52.4852553 C106.90532685 52.48973556 104.97941016 52.48742335 103.05354238 52.47775215 C100.4412193 52.46563675 97.83012339 52.47801347 95.21786499 52.49663544 C94.08895202 52.48258844 94.08895202 52.48258844 92.93723273 52.46825767 C86.39838362 52.56180304 83.01033237 54.8365864 78.65646029 59.52199376 Z " fill="#FEFEFE" transform="translate(0,0)"/>
<path d="M0 0 C0.81554486 -0.00581376 1.63108971 -0.01162753 2.47134805 -0.01761746 C5.20984636 -0.03223966 7.94745151 -0.01832199 10.6859436 -0.00457001 C12.66675462 -0.00917804 14.64756223 -0.0155303 16.62836266 -0.02347898 C22.07607109 -0.04020876 27.52349996 -0.03190928 32.97120953 -0.01953411 C38.8445038 -0.0105009 44.71774929 -0.02444476 50.59103394 -0.0354538 C62.09860657 -0.05326207 73.60607499 -0.04938873 85.11365175 -0.03780323 C94.46415003 -0.02863657 103.81462847 -0.02743498 113.16513062 -0.0318985 C113.82929388 -0.03220404 114.49345715 -0.03250958 115.17774658 -0.03282438 C117.87374597 -0.03406972 120.56974535 -0.03534331 123.26574471 -0.03666343 C148.5605526 -0.04890171 173.8553036 -0.03780199 199.1501027 -0.01627585 C221.62708666 0.00270684 244.10397997 0.00100834 266.58096313 -0.01811981 C291.82925876 -0.03953452 317.07750412 -0.04803381 342.32580757 -0.03567076 C345.01691817 -0.03438787 347.70802878 -0.03313651 350.3991394 -0.0318985 C351.06176809 -0.03158219 351.72439679 -0.03126588 352.40710513 -0.03093999 C362.41711896 -0.02638851 372.42709597 -0.03173892 382.43710327 -0.04181671 C393.81801178 -0.05302256 405.1988099 -0.05002638 416.57970572 -0.02869374 C422.38901694 -0.01816434 428.19814396 -0.01409375 434.00745392 -0.02729034 C439.32207235 -0.0391808 444.63633527 -0.03270686 449.9509213 -0.01138014 C451.87680816 -0.00689988 453.80272485 -0.00921209 455.72859263 -0.01888329 C458.34091571 -0.03099868 460.95201162 -0.01862197 463.56427002 0 C464.31687866 -0.00936466 465.06948731 -0.01872933 465.84490228 -0.02837777 C470.98051249 0.04509274 473.8920772 1.17177556 477.78213501 4.50336456 C501.46089682 40.02150727 481.78213501 89.81586965 481.78213501 132.50336456 C316.78213501 132.50336456 151.78213501 132.50336456 -18.21786499 132.50336456 C-18.21786499 10.50336456 -18.21786499 10.50336456 -14.21786499 4.50336456 C-9.63919977 0.58202677 -5.84868592 -0.07277485 0 0 Z " fill="#333333" transform="translate(95.21786499023438,52.49663543701172)"/>
<path d="M0 0 C13.92241743 -0.36866214 26.29841972 3.70240666 36.6328125 13.12109375 C47.3731387 23.36874443 52.46873286 35.43775784 52.8828125 50.18359375 C52.52138807 64.48244762 47.44291232 76.0787233 37.53125 86.28515625 C26.98309582 96.23694836 14.61135066 100.50661118 0.26171875 100.265625 C-14.13030532 99.47438445 -25.54959415 93.65331261 -35.3671875 83.12109375 C-42.16197491 74.94387358 -46.89656429 65.86358011 -47.3671875 55.12109375 C-47.40714844 54.35152344 -47.44710937 53.58195313 -47.48828125 52.7890625 C-47.85662752 39.0302461 -44.14806282 27.35793483 -35.1171875 16.80859375 C-25.26356995 6.52584043 -14.18654607 0.7257144 0 0 Z " fill="#FD9E1A" transform="translate(149.3671875,649.87890625)"/>
<path d="M0 0 C13.92241743 -0.36866214 26.29841972 3.70240666 36.6328125 13.12109375 C47.3731387 23.36874443 52.46873286 35.43775784 52.8828125 50.18359375 C52.52138807 64.48244762 47.44291232 76.0787233 37.53125 86.28515625 C26.98309582 96.23694836 14.61135066 100.50661118 0.26171875 100.265625 C-14.13030532 99.47438445 -25.54959415 93.65331261 -35.3671875 83.12109375 C-42.16197491 74.94387358 -46.89656429 65.86358011 -47.3671875 55.12109375 C-47.40714844 54.35152344 -47.44710937 53.58195313 -47.48828125 52.7890625 C-47.85662752 39.0302461 -44.14806282 27.35793483 -35.1171875 16.80859375 C-25.26356995 6.52584043 -14.18654607 0.7257144 0 0 Z " fill="#FD9E1A" transform="translate(149.3671875,539.87890625)"/>
<path d="M0 0 C13.92241743 -0.36866214 26.29841972 3.70240666 36.6328125 13.12109375 C47.3731387 23.36874443 52.46873286 35.43775784 52.8828125 50.18359375 C52.52138807 64.48244762 47.44291232 76.0787233 37.53125 86.28515625 C26.98309582 96.23694836 14.61135066 100.50661118 0.26171875 100.265625 C-14.13030532 99.47438445 -25.54959415 93.65331261 -35.3671875 83.12109375 C-42.16197491 74.94387358 -46.89656429 65.86358011 -47.3671875 55.12109375 C-47.40714844 54.35152344 -47.44710937 53.58195312 -47.48828125 52.7890625 C-47.85662752 39.0302461 -44.14806282 27.35793483 -35.1171875 16.80859375 C-25.26356995 6.52584043 -14.18654607 0.7257144 0 0 Z " fill="#FD9E1A" transform="translate(149.3671875,429.87890625)"/>
<path d="M0 0 C13.92241743 -0.36866214 26.29841972 3.70240666 36.6328125 13.12109375 C47.3731387 23.36874443 52.46873286 35.43775784 52.8828125 50.18359375 C52.52138807 64.48244762 47.44291232 76.0787233 37.53125 86.28515625 C26.98309582 96.23694836 14.61135066 100.50661118 0.26171875 100.265625 C-14.13030532 99.47438445 -25.54959415 93.65331261 -35.3671875 83.12109375 C-42.16197491 74.94387358 -46.89656429 65.86358011 -47.3671875 55.12109375 C-47.40714844 54.35152344 -47.44710937 53.58195312 -47.48828125 52.7890625 C-47.85662752 39.0302461 -44.14806282 27.35793483 -35.1171875 16.80859375 C-25.26356995 6.52584043 -14.18654607 0.7257144 0 0 Z " fill="#FD9E1A" transform="translate(149.3671875,319.87890625)"/>
<path d="M0 0 C13.92241743 -0.36866214 26.29841972 3.70240666 36.6328125 13.12109375 C47.3731387 23.36874443 52.46873286 35.43775784 52.8828125 50.18359375 C52.52138807 64.48244762 47.44291232 76.0787233 37.53125 86.28515625 C26.98309582 96.23694836 14.61135066 100.50661118 0.26171875 100.265625 C-14.13030532 99.47438445 -25.54959415 93.65331261 -35.3671875 83.12109375 C-42.16197491 74.94387358 -46.89656429 65.86358011 -47.3671875 55.12109375 C-47.40714844 54.35152344 -47.44710937 53.58195312 -47.48828125 52.7890625 C-47.85662752 39.0302461 -44.14806282 27.35793483 -35.1171875 16.80859375 C-25.26356995 6.52584043 -14.18654607 0.7257144 0 0 Z " fill="#FD9E1A" transform="translate(149.3671875,209.87890625)"/>
<path d="M0 0 C3.01405078 1.63342107 5.5195651 3.56920254 6.64746094 6.92822266 C7.23713381 10.3935717 7.22591238 13.87025187 7.25 17.375 C7.270625 18.1175 7.29125 18.86 7.3125 19.625 C7.35284953 25.33445811 6.24738538 29.50290513 2.3125 33.875 C-1.10524568 35.53768709 -4.32140789 35.6581974 -8 35 C-12.0810929 32.60457591 -13.64395192 30.46241373 -15 26 C-15.30645768 22.99562021 -15.32474839 20.01800338 -15.3125 17 C-15.32861328 16.2059375 -15.34472656 15.411875 -15.36132812 14.59375 C-15.36612064 8.84273401 -14.31475613 5.48621955 -10.3125 1.1875 C-6.88611768 -0.57199362 -3.71017632 -0.76909605 0 0 Z " fill="#F5F8F6" transform="translate(271,571)"/>
<path d="M0 0 C4.54054054 2.08108108 4.54054054 2.08108108 6 5 C6.46829268 12.37560976 6.46829268 12.37560976 4.5 15 C4.005 15.33 3.51 15.66 3 16 C3.66 16.474375 4.32 16.94875 5 17.4375 C7.5508521 20.70577926 7.57197687 22.75711682 7.3984375 26.80859375 C6.81211554 30.03336452 5.35136429 31.78695125 3 34 C-0.69725375 35.84862688 -4.96461442 35.47587094 -9 35 C-11.93423195 33.20353146 -13.47205355 32.0558929 -15 29 C-15.42535668 24.76279307 -15.68440794 21.16919689 -13.5 17.4375 C-13.005 16.963125 -12.51 16.48875 -12 16 C-12.515625 15.319375 -13.03125 14.63875 -13.5625 13.9375 C-15.45332378 10.07364271 -15.19248952 8.09918272 -14 4 C-10.14050646 -0.70375775 -5.69292014 -0.8766272 0 0 Z " fill="#F5F7F6" transform="translate(386,241)"/>
<path d="M0 0 C4.06549994 2.10803701 6.29075759 3.77679533 8 8 C8.47755813 11.09291245 8.46167143 14.18632591 8.5 17.3125 C8.54125 18.14201172 8.5825 18.97152344 8.625 19.82617188 C8.69791552 25.60016977 7.49646658 28.54257779 3.49023438 32.71166992 C0.27922778 35.48763352 -2.71843817 35.33646954 -6.8046875 35.27734375 C-9 35 -9 35 -11.5 33.375 C-13.27533915 30.56404634 -13.70099803 28.28902165 -14 25 C-10.625 24.8125 -10.625 24.8125 -7 25 C-6.34 25.99 -5.68 26.98 -5 28 C-3.68 27.67 -2.36 27.34 -1 27 C-0.67 25.02 -0.34 23.04 0 21 C-0.33 21.33 -0.66 21.66 -1 22 C-8.09832134 22.70983213 -8.09832134 22.70983213 -11.9375 19.6875 C-15.14662807 15.50590887 -15.52758298 12.18789933 -15 7 C-11.28769055 0.78049649 -7.09293871 -0.96242477 0 0 Z " fill="#F6F7F6" transform="translate(500,241)"/>
<path d="M0 0 C3.70718164 0.91943989 5.4334563 2.63607584 7.96875 5.48828125 C8.34375 8.30078125 8.34375 8.30078125 7.96875 10.48828125 C5.65875 10.48828125 3.34875 10.48828125 0.96875 10.48828125 C0.96875 9.49828125 0.96875 8.50828125 0.96875 7.48828125 C-1.44744823 7.23797148 -1.44744823 7.23797148 -4.03125 7.48828125 C-6.40105013 10.44205623 -6.40105013 10.44205623 -6.03125 14.48828125 C-5.70125 14.15828125 -5.37125 13.82828125 -5.03125 13.48828125 C-0.04089496 13.10440779 2.96691167 13.40114882 6.96875 16.48828125 C9.4419663 20.19810571 9.51585902 23.18716267 8.96875 27.48828125 C7.34950077 31.13159202 5.56023961 33.69253644 1.96875 35.48828125 C-1.13971013 36.01899395 -3.92944279 36.08648693 -7.03125 35.48828125 C-10.3780872 32.92474637 -12.49578568 30.39120158 -14.03125 26.48828125 C-14.60731326 19.53316451 -15.03807955 11.91196256 -12.03125 5.48828125 C-8.36266113 1.38295561 -5.43304192 -0.36568551 0 0 Z " fill="#F8F8F6" transform="translate(500.03125,350.51171875)"/>
<path d="M0 0 C3.14148974 2.24392125 4.76426367 4.51136125 6.625 7.875 C6.625 8.535 6.625 9.195 6.625 9.875 C4.315 10.205 2.005 10.535 -0.375 10.875 C-0.725625 10.235625 -1.07625 9.59625 -1.4375 8.9375 C-3.32657257 6.56627515 -3.32657257 6.56627515 -6.8125 5.9375 C-10.28633916 5.60166314 -10.28633916 5.60166314 -12.75 7.0625 C-15.89440913 10.56972557 -15.59995116 14.29859073 -15.53125 18.91015625 C-15.32019824 21.56413213 -14.67181261 23.55438796 -13.375 25.875 C-10.49038937 28.2093558 -10.49038937 28.2093558 -6.875 27.8125 C-3.2220268 27.21817158 -3.2220268 27.21817158 -1.4375 24.3125 C-1.086875 23.508125 -0.73625 22.70375 -0.375 21.875 C1.605 22.205 3.585 22.535 5.625 22.875 C5.955 23.865 6.285 24.855 6.625 25.875 C4.30257242 30.1625586 2.22334304 33.11393245 -2.375 34.875 C-7.74764334 35.54041913 -11.98348549 35.57075726 -16.875 33.125 C-21.1450509 29.28195419 -23.1374393 26.40998322 -23.68359375 20.58203125 C-23.92232846 13.36934919 -24.05734576 7.98889553 -19.078125 2.29296875 C-13.46341098 -2.381667 -6.7206053 -2.24020177 0 0 Z " fill="#FFFAF5" transform="translate(160.375,681.125)"/>
<path d="M0 0 C6.27 0 12.54 0 19 0 C19 2.31 19 4.62 19 7 C14.71 7 10.42 7 6 7 C5.67 8.65 5.34 10.3 5 12 C6.794375 11.87625 6.794375 11.87625 8.625 11.75 C13.08253875 11.73416505 15.5439542 13.1340108 19 16 C20.72589785 19.45179569 20.36043965 23.21866039 20 27 C18.699544 30.14847243 17.4485648 31.61740061 14.875 33.8125 C10.84326864 35.47778035 7.29560334 35.82488035 3 35 C-0.58872618 32.45798563 -1.76476466 30.95903639 -2.8125 26.6875 C-2.874375 25.800625 -2.93625 24.91375 -3 24 C0.3125 23.75 0.3125 23.75 4 24 C5.625 26 5.625 26 7 28 C9.62625139 28.33425735 9.62625139 28.33425735 12 28 C12 25.36 12 22.72 12 20 C9.14221967 19.31506627 9.14221967 19.31506627 6 19 C5.01 19.66 4.02 20.32 3 21 C0.3125 20.625 0.3125 20.625 -2 20 C-2.22874661 13.02322841 -1.38648032 6.84574658 0 0 Z " fill="#F5F7F5" transform="translate(374,351)"/>
<path d="M0 0 C0 7.26 0 14.52 0 22 C1.65 22 3.3 22 5 22 C5 23.98 5 25.96 5 28 C3.35 28 1.7 28 0 28 C0 30.31 0 32.62 0 35 C-1.98 35 -3.96 35 -6 35 C-6 32.69 -6 30.38 -6 28 C-10.62 28 -15.24 28 -20 28 C-20.98242933 20.06641972 -17.93027311 15.80589115 -13.375 9.5 C-12.75753906 8.5821875 -12.14007813 7.664375 -11.50390625 6.71875 C-10.58544922 5.419375 -10.58544922 5.419375 -9.6484375 4.09375 C-9.09333496 3.30677734 -8.53823242 2.51980469 -7.96630859 1.70898438 C-6 0 -6 0 0 0 Z " fill="#F9FAF8" transform="translate(275,351)"/>
<path d="M0 0 C4.51315789 2.02631579 4.51315789 2.02631579 6 5 C6.65464945 8.99419034 6.75006381 12.54139841 4.87109375 16.1953125 C1.76153673 20.46587906 -1.81100142 23.80838203 -6 27 C-1.71 27.33 2.58 27.66 7 28 C7 30.31 7 32.62 7 35 C-0.92 35 -8.84 35 -17 35 C-15.99953829 28.99722977 -15.65746051 28.01963176 -11.75 23.9375 C-10.94175781 23.07511719 -10.13351562 22.21273438 -9.30078125 21.32421875 C-7.55532181 19.56097874 -5.78771764 17.89760015 -3.9375 16.25 C-1.68463315 14.07247725 -1.68463315 14.07247725 -1.6875 10.6875 C-1.790625 9.800625 -1.89375 8.91375 -2 8 C-3.65 7.67 -5.3 7.34 -7 7 C-7.66 8.32 -8.32 9.64 -9 11 C-11.31 11 -13.62 11 -16 11 C-15.77407627 7.08398866 -15.53572471 4.67397624 -13.0625 1.5625 C-8.68459171 -0.67112668 -4.82414265 -0.6733204 0 0 Z " fill="#F5F7F5" transform="translate(387,461)"/>
<path d="M0 0 C3.96297339 0.86212053 5.59711878 2.38297984 8.2265625 5.484375 C8.89720308 9.13564035 8.70854564 10.72123502 6.7265625 13.859375 C6.2315625 14.395625 5.7365625 14.931875 5.2265625 15.484375 C5.8865625 15.95875 6.5465625 16.433125 7.2265625 16.921875 C9.78497136 20.19983635 9.63165599 22.2269149 9.5625 26.265625 C9.02307911 29.8283118 7.90591621 31.90795367 5.1640625 34.234375 C1.10507831 35.96160232 -2.42998563 36.31844366 -6.7734375 35.484375 C-10.36216368 32.94236063 -11.53820216 31.44341139 -12.5859375 27.171875 C-12.6478125 26.285 -12.7096875 25.398125 -12.7734375 24.484375 C-10.4634375 24.484375 -8.1534375 24.484375 -5.7734375 24.484375 C-5.1134375 25.804375 -4.4534375 27.124375 -3.7734375 28.484375 C-2.1234375 28.154375 -0.4734375 27.824375 1.2265625 27.484375 C1.2265625 25.174375 1.2265625 22.864375 1.2265625 20.484375 C-0.7534375 19.824375 -2.7334375 19.164375 -4.7734375 18.484375 C-4.5234375 16.109375 -4.5234375 16.109375 -3.7734375 13.484375 C-1.7109375 12.171875 -1.7109375 12.171875 0.2265625 11.484375 C-0.1034375 10.164375 -0.4334375 8.844375 -0.7734375 7.484375 C-2.74880495 7.83224208 -2.74880495 7.83224208 -4.7734375 8.484375 C-5.1034375 9.144375 -5.4334375 9.804375 -5.7734375 10.484375 C-7.4234375 10.484375 -9.0734375 10.484375 -10.7734375 10.484375 C-11.5859375 8.296875 -11.5859375 8.296875 -11.7734375 5.484375 C-8.5680454 0.67628685 -5.51577099 -0.3320531 0 0 Z " fill="#F5F6F4" transform="translate(498.7734375,460.515625)"/>
<path d="M0 0 C7.59 0 15.18 0 23 0 C23 5.30977311 22.8429864 5.70524357 19.75 9.5 C14.2385296 16.96391437 11.85341453 25.82579377 11 35 C8.69 35 6.38 35 4 35 C4.39713477 24.3766449 7.63726551 17.00173289 13 8 C8.71 7.67 4.42 7.34 0 7 C0 4.69 0 2.38 0 0 Z " fill="#F4F7F5" transform="translate(256,241)"/>
<path d="M0 0 C1.98 0 3.96 0 6 0 C6 11.55 6 23.1 6 35 C3.69 35 1.38 35 -1 35 C-1.33 27.41 -1.66 19.82 -2 12 C-4.475 13.485 -4.475 13.485 -7 15 C-7.99 15 -8.98 15 -10 15 C-10.5 12.375 -10.5 12.375 -10 9 C-8.10845474 7.19914526 -6.13285356 5.81760903 -3.9453125 4.39453125 C-1.73288553 2.98180698 -1.73288553 2.98180698 0 0 Z " fill="#F2F8F5" transform="translate(267,461)"/>
<path d="M0 0 C1.98 0 3.96 0 6 0 C6 2.97 6 5.94 6 9 C8.97 9 11.94 9 15 9 C15 10.98 15 12.96 15 15 C12.03 15 9.06 15 6 15 C6 17.97 6 20.94 6 24 C4.02 24 2.04 24 0 24 C0 21.03 0 18.06 0 15 C-2.97 15 -5.94 15 -9 15 C-9 13.02 -9 11.04 -9 9 C-6.03 9 -3.06 9 0 9 C0 6.03 0 3.06 0 0 Z " fill="#FFFEFA" transform="translate(149,247)"/>
<path d="M0 0 C1.2065625 0.0309375 1.2065625 0.0309375 2.4375 0.0625 C1.78594387 7.77395546 0.16863675 15.10504265 -1.625 22.625 C-2.04749023 24.42420898 -2.04749023 24.42420898 -2.47851562 26.25976562 C-3.16850562 29.1951468 -3.86327009 32.12930871 -4.5625 35.0625 C-6.5425 35.0625 -8.5225 35.0625 -10.5625 35.0625 C-9.84134911 27.76986161 -8.22966671 20.75371047 -6.5625 13.625 C-6.15257812 11.8315918 -6.15257812 11.8315918 -5.734375 10.00195312 C-3.43384863 0.08375241 -3.43384863 0.08375241 0 0 Z " fill="#FFF6EF" transform="translate(155.5625,570.9375)"/>
<path d="M0 0 C2.6875 0.875 2.6875 0.875 5 2 C5.02696009 4.7708983 5.04681952 7.5415345 5.0625 10.3125 C5.07087891 11.09818359 5.07925781 11.88386719 5.08789062 12.69335938 C5.09111328 13.45068359 5.09433594 14.20800781 5.09765625 14.98828125 C5.10289307 15.68477783 5.10812988 16.38127441 5.11352539 17.09887695 C5 19 5 19 4 22 C2.35 22.33 0.7 22.66 -1 23 C-3.72175345 18.91736982 -3.33122978 15.72857759 -3.3125 10.9375 C-3.32861328 10.10927734 -3.34472656 9.28105469 -3.36132812 8.42773438 C-3.36197266 7.63560547 -3.36261719 6.84347656 -3.36328125 6.02734375 C-3.36626221 5.30281006 -3.36924316 4.57827637 -3.37231445 3.83178711 C-3 2 -3 2 0 0 Z " fill="#3B3839" transform="translate(266,577)"/>
<path d="M0 0 C1.65 0 3.3 0 5 0 C4.67 1.98 4.34 3.96 4 6 C5.98 5.34 7.96 4.68 10 4 C10.33 5.32 10.66 6.64 11 8 C9.02 8.99 9.02 8.99 7 10 C7.66 11.32 8.32 12.64 9 14 C7.02 14.99 7.02 14.99 5 16 C4.01 15.01 3.02 14.02 2 13 C1.01 14.485 1.01 14.485 0 16 C-2.475 15.01 -2.475 15.01 -5 14 C-4.01 12.68 -3.02 11.36 -2 10 C-3.32 9.34 -4.64 8.68 -6 8 C-5.67 6.68 -5.34 5.36 -5 4 C-3.35 4.33 -1.7 4.66 0 5 C0 3.35 0 1.7 0 0 Z " fill="#FFF5E9" transform="translate(149,461)"/>
<path d="M0 0 C7.92 0 15.84 0 24 0 C24 1.98 24 3.96 24 6 C16.08 6 8.16 6 0 6 C0 4.02 0 2.04 0 0 Z " fill="#FDFFFD" transform="translate(485,590)"/>
<path d="M0 0 C7.92 0 15.84 0 24 0 C24 1.98 24 3.96 24 6 C16.08 6 8.16 6 0 6 C0 4.02 0 2.04 0 0 Z " fill="#FDFFFD" transform="translate(485,580)"/>
<path d="M0 0 C4.62 0 9.24 0 14 0 C14 1.98 14 3.96 14 6 C9.38 6 4.76 6 0 6 C0 4.02 0 2.04 0 0 Z " fill="#FFFAF3" transform="translate(146,371)"/>
<path d="M0 0 C4.55555556 0.55555556 4.55555556 0.55555556 6 2 C6.25 5.4375 6.25 5.4375 6 9 C3 11 3 11 0.875 10.6875 C-1 10 -1 10 -2 9 C-2.1875 5.5625 -2.1875 5.5625 -2 2 C-1.34 1.34 -0.68 0.68 0 0 Z " fill="#3F3A3B" transform="translate(380,260)"/>
<path d="M0 0 C1 1 1 1 1.25 3.9375 C1.1675 4.948125 1.085 5.95875 1 7 C-2 9 -2 9 -4.0625 8.75 C-6 8 -6 8 -8 6 C-7.75 2.9375 -7.75 2.9375 -7 0 C-4.31633121 -1.3418344 -2.84719317 -0.73004953 0 0 Z " fill="#444346" transform="translate(501,371)"/>
<path d="M0 0 C1.9375 0.75 1.9375 0.75 3.9375 2.75 C4.25 5.25 4.25 5.25 3.9375 7.75 C0.9375 9.75 0.9375 9.75 -1.125 9.5 C-3.0625 8.75 -3.0625 8.75 -5.0625 6.75 C-5.375 4.25 -5.375 4.25 -5.0625 1.75 C-2.0625 -0.25 -2.0625 -0.25 0 0 Z " fill="#454746" transform="translate(497.0625,247.25)"/>
<path d="M0 0 C4.55555556 0.55555556 4.55555556 0.55555556 6 2 C6.25 4.4375 6.25 4.4375 6 7 C3 9 3 9 0.875 8.6875 C-1 8 -1 8 -2 7 C-2.1875 4.5625 -2.1875 4.5625 -2 2 C-1.34 1.34 -0.68 0.68 0 0 Z " fill="#424148" transform="translate(380,246)"/>
<path d="M0 0 C2.31 0 4.62 0 7 0 C7 2.31 7 4.62 7 7 C4.69 7 2.38 7 0 7 C0 4.69 0 2.38 0 0 Z " fill="#FBF7EF" transform="translate(379,599)"/>
<path d="M0 0 C0.33 0 0.66 0 1 0 C1 3.63 1 7.26 1 11 C-1.64 11 -4.28 11 -7 11 C-5.85845641 9.16399255 -4.71165684 7.33125195 -3.5625 5.5 C-2.92441406 4.4790625 -2.28632813 3.458125 -1.62890625 2.40625 C-0.82259766 1.21515625 -0.82259766 1.21515625 0 0 Z " fill="#434C55" transform="translate(268,362)"/>
</svg>
